PathFileType	4	(X/Y/Z)	/Users/visionmauri/Downloads/Videos/OAW10-top_Sports2D/OAW10-top_Sports2D_px_person00.trc
DataRate	CameraRate	NumFrames	NumMarkers	Units	OrigDataRate	OrigDataStartFrame	OrigNumFrames
25.0	25.0	4	22	m	25.0	877	1754
Frame#	Time	Hip			RHip			RKnee			RAnkle			RBigToe			RSmallToe			RHeel			LHip			LKnee			LAnkle			LBigToe			LSmallToe			LHeel			Neck			Head			Nose			RShoulder			RElbow			RWrist			LShoulder			LElbow			LWrist			
		X1	Y1	Z1	X2	Y2	Z2	X3	Y3	Z3	X4	Y4	Z4	X5	Y5	Z5	X6	Y6	Z6	X7	Y7	Z7	X8	Y8	Z8	X9	Y9	Z9	X10	Y10	Z10	X11	Y11	Z11	X12	Y12	Z12	X13	Y13	Z13	X14	Y14	Z14	X15	Y15	Z15	X16	Y16	Z16	X17	Y17	Z17	X18	Y18	Z18	X19	Y19	Z19	X20	Y20	Z20	X21	Y21	Z21	X22	Y22	Z22
877	35.10001140901312	515.5697975368453	590.5056687694589	0.0	493.01116794549995	589.8066616582959	0.0	499.5001129939805	682.5925103310349	0.0	499.4389939441863	780.4726281607602	0.0	495.1562253416311	809.1700550939476	0.0	485.01485104829766	805.6833129403093	0.0	501.11612686443755	794.2709145060601	0.0	536.7024585626918	590.1633355646375	0.0	529.1171223398636	681.2805216146662	0.0	527.9492621493358	731.7172980948883	0.0	515.244070480897	768.5340767189576	0.0	530.0484633353152	763.8313524932304	0.0	527.469963319707	734.9937312466491	0.0	515.6208810463431	462.6458024972964	0.0	511.9343309808622	402.7519231256266	0.0	508.420553401736	449.9091899953583	0.0	471.00031505764815	474.7026609051476	0.0	462.4035489156063	543.4620382627975	0.0	465.44892025512615	604.0165644916574	0.0	561.8536356531412	471.47836034744273	0.0	576.6132832750861	539.6586116549302	0.0	581.6350892140157	595.595073360406	0.0
878	35.14003422703936	515.6125855733454	590.8928127728785	0.0	492.8086414169666	590.150469529221	0.0	498.5733423263712	684.3688767486298	0.0	499.07229714592665	781.1795392858252	0.0	495.36694241229526	809.6034737986056	0.0	485.1025105547316	805.8808184521592	0.0	501.2564554827617	796.2638808888656	0.0	536.7147154225809	590.8224897673942	0.0	530.2045222615984	684.8032485162479	0.0	530.2940450060632	731.1290473784173	0.0	517.397723304065	769.6125020253959	0.0	531.6493868428025	765.5616805680597	0.0	530.6842401987232	732.0473649801821	0.0	515.6126398090951	462.89833779394365	0.0	512.5879066281303	401.8151490601302	0.0	509.3588160620677	448.13113254142564	0.0	471.05761607741164	473.43619927359487	0.0	460.36157915439225	544.715578395571	0.0	461.66052856904736	607.5530850171275	0.0	562.4282016555397	471.4522521053444	0.0	576.677537953861	542.837383374083	0.0	581.4091981621395	600.3138519581362	0.0
879	35.180057045065595	515.6667804614451	591.5481815567654	0.0	492.9157466475938	590.8393561478454	0.0	498.1605613793745	686.2434556716237	0.0	499.4633472866933	781.5745600620362	0.0	496.4321617327817	810.0409302835325	0.0	485.67286727105187	806.8941413794016	0.0	501.5791030748287	796.9585864738583	0.0	536.7383980043297	591.6265082805684	0.0	531.092792105464	687.9185111477038	0.0	532.0310172801078	735.4314841117748	0.0	522.5796862601259	773.7947930824665	0.0	535.3621112585002	770.7308312300117	0.0	532.4562796527802	737.3858956389873	0.0	515.751260791106	463.16912931799226	0.0	513.767664887315	400.77113206699386	0.0	511.71590456745105	447.8025809919615	0.0	471.11231847713015	471.41735622059997	0.0	457.853811040282	545.0964683553628	0.0	457.25096340577335	610.7677088415417	0.0	562.8689054527493	470.963830406367	0.0	576.7096915802241	544.1597959326975	0.0	581.2219637541659	603.2160431856528	0.0
880	35.22007986309184	515.5955495370044	592.8456289576853	0.0	492.93082691867966	592.9228528037048	0.0	498.30015804631483	688.1568955880966	0.0	500.13659277430304	781.6028390071627	0.0	498.11307304805763	809.9925699991493	0.0	486.00491569030913	807.7838824501677	0.0	501.7010981107705	796.0657859046066	0.0	537.1677340534679	593.1757918463095	0.0	532.3777091990728	690.2958652924683	0.0	533.5575871419112	746.4424700188151	0.0	528.116062775851	783.7359374051765	0.0	540.1260198391312	781.2067104836411	0.0	533.2998806944803	752.5796266937084	0.0	516.3562172352047	462.7398762976404	0.0	515.4762570108062	400.4685494516548	0.0	514.768580125248	448.62497456927673	0.0	471.0528036195022	470.08243759291133	0.0	455.1699292514977	544.7612925436583	0.0	453.4683348233898	613.2798995413202	0.0	563.4343122613775	470.7401087085971	0.0	577.0159049616143	544.4295194307197	0.0	580.6638972898023	604.4124227720241	0.0
